<svg width="102" height="26" viewBox="0 0 102 26" fill="none" xmlns="http://www.w3.org/2000/svg">
<g clip-path="url(#clip0_1_588)">
<path d="M18.2054 1.70226C19.3771 1.7023 20.327 2.65217 20.327 3.8239V13.3727C20.3894 11.898 20.6895 10.6448 21.2284 9.61362C21.8377 8.43694 22.6678 7.54927 23.7184 6.95041C24.7796 6.35154 25.9878 6.05199 27.3432 6.05199C28.6879 6.052 29.8857 6.35157 30.9363 6.95041C31.9973 7.54927 32.8274 8.43696 33.4263 9.61362C34.0357 10.7798 34.3405 12.2298 34.3405 13.9634C34.3405 15.6865 34.0357 17.1364 33.4263 18.3131C32.8274 19.4898 31.9975 20.3778 30.9363 20.9766C29.8857 21.5755 28.6879 21.875 27.3432 21.875C25.9879 21.875 24.7796 21.5755 23.7184 20.9766C22.6678 20.3778 21.8377 19.4898 21.2284 18.3131C20.6895 17.2726 20.3894 16.0185 20.327 14.5508V20.2516C20.327 20.9392 19.7696 21.4966 19.082 21.4967C18.3944 21.4967 17.837 20.9392 17.837 20.2516V9.39045C17.837 8.34739 16.4281 8.01988 15.968 8.956L11.3903 18.2708C11.1689 18.7212 10.7107 19.0066 10.2087 19.0066C9.70726 19.0066 9.24942 18.7216 9.02785 18.2718L4.32378 8.71973C3.86316 7.78438 2.45514 8.11228 2.45514 9.15489V20.2673C2.45514 20.9462 1.90499 21.4966 1.22614 21.4967C0.547235 21.4967 -0.00317383 20.9463 -0.00317383 20.2673V3.88225C-0.00313378 2.67827 0.972831 1.70226 2.17683 1.70226C3.00403 1.70226 3.75997 2.17051 4.12854 2.91105L9.32727 13.3565C9.68967 14.0846 10.7285 14.0847 11.0909 13.3565L16.3059 2.87866C16.6647 2.15795 17.4004 1.70226 18.2054 1.70226ZM47.0392 0C47.718 4.87246e-05 48.2684 0.550492 48.2685 1.22932V9.63518C48.2685 9.88132 48.7351 9.96048 48.8444 9.73994C49.4327 8.5527 50.2365 7.64366 51.2555 7.01326C52.2852 6.37237 53.4567 6.05199 54.77 6.05199C55.9152 6.052 56.8922 6.28324 57.7012 6.74553C58.5103 7.20782 59.1618 7.83293 59.6555 8.62093C60.1493 9.40892 60.4909 10.302 60.68 11.3001C60.7435 11.614 60.7927 11.9317 60.8275 12.2531C60.9564 13.445 59.9288 14.3732 58.7299 14.3732H50.704C50.6122 14.3732 50.5242 14.3564 50.4427 14.3263C50.432 14.3223 50.4203 14.3302 50.4203 14.3417C50.4203 15.3923 50.578 16.3326 50.8932 17.1627C51.219 17.9926 51.7022 18.6493 52.3431 19.1327C52.9841 19.6159 53.793 19.8576 54.77 19.8576C55.7472 19.8576 56.5508 19.6212 57.1813 19.1484C57.549 18.8726 57.8329 18.5198 58.0325 18.0903C58.2949 17.5257 58.7928 17.0523 59.4154 17.0523C60.1869 17.0523 60.7893 17.7527 60.4914 18.4644C60.3139 18.8885 60.088 19.2794 59.8133 19.637C59.2565 20.3514 58.5471 20.903 57.6856 21.2918C56.824 21.6806 55.8522 21.875 54.77 21.875C53.4672 21.875 52.3009 21.5439 51.2713 20.8821C50.2521 20.2096 49.4432 19.2798 48.8444 18.0925C48.7337 17.8693 48.2685 17.9495 48.2685 18.1986V20.4129C48.2685 21.0114 47.7832 21.4966 47.1848 21.4967C46.6346 21.4967 46.1719 21.0844 46.1084 20.538C46.0546 20.0757 45.368 19.9299 45.0541 20.2736C44.7656 20.5895 44.4449 20.8607 44.0919 21.087C43.283 21.6122 42.3741 21.8747 41.3655 21.8747C40.1468 21.8747 39.028 21.5492 38.0088 20.8978C36.9897 20.2358 36.1753 19.3111 35.5659 18.1239C34.9565 16.9262 34.6518 15.5185 34.6517 13.9005C34.6517 12.2931 34.9514 10.9007 35.5502 9.72391C36.1491 8.54722 36.9423 7.64364 37.93 7.01326C38.928 6.37241 40.0206 6.05203 41.2078 6.05199C42.311 6.05199 43.2776 6.32001 44.1077 6.85583C44.6835 7.22295 45.8099 6.84246 45.8099 6.15952V1.22932C45.8099 0.550462 46.3603 0 47.0392 0ZM27.4061 8.1637C26.4185 8.16372 25.5832 8.40017 24.9003 8.87295C24.2279 9.33524 23.713 10.0026 23.3558 10.8747C23.0091 11.7362 22.8357 12.7657 22.8357 13.9634C22.8357 15.7389 23.2088 17.1469 23.9548 18.1871C24.7112 19.2167 25.8197 19.7315 27.2801 19.7316C28.2571 19.7316 29.0872 19.5003 29.7701 19.038C30.453 18.5653 30.9679 17.8982 31.3146 17.0367C31.6718 16.1751 31.8504 15.1506 31.8504 13.9634C31.8504 12.1668 31.4773 10.7536 30.7313 9.72391C29.9854 8.68387 28.8769 8.1637 27.4061 8.1637ZM41.6494 8.22687C40.8298 8.22687 40.0785 8.45811 39.3955 8.92041C38.7232 9.37217 38.1819 10.0234 37.7721 10.8743C37.3729 11.7149 37.1736 12.7238 37.1736 13.9005C37.1736 15.0982 37.373 16.1277 37.7721 16.9892C38.1819 17.8507 38.7232 18.513 39.3955 18.9752C40.0785 19.4375 40.8298 19.6685 41.6494 19.6685C42.3322 19.6685 42.9889 19.4899 43.6193 19.1327C44.2602 18.7754 44.7855 18.2553 45.1952 17.5725C45.5373 16.9935 45.7367 16.3156 45.7933 15.539C45.798 15.473 45.8099 15.4074 45.8099 15.3412V12.5495C45.8099 12.4849 45.7986 12.4208 45.7942 12.3563C45.74 11.5626 45.5455 10.8795 45.2109 10.3072C44.8222 9.62422 44.3125 9.10937 43.6821 8.76265C43.0518 8.40547 42.3742 8.22688 41.6494 8.22687ZM54.8015 8.0377C53.835 8.03771 53.026 8.28461 52.3746 8.77836C51.7232 9.27216 51.2347 9.92366 50.9089 10.7326C50.666 11.3284 50.514 11.9621 50.4524 12.6339C50.4405 12.764 50.5735 12.8603 50.704 12.8603H57.5256C58.0716 12.8603 58.5192 12.4148 58.453 11.8729C58.4368 11.7396 58.4174 11.6064 58.3949 11.4733C58.3002 10.8535 58.1165 10.2861 57.8433 9.77137C57.5702 9.24604 57.1864 8.82583 56.6926 8.51063C56.1987 8.19546 55.5684 8.0377 54.8015 8.0377Z" fill="#FF6A13"/>
<path d="M97.5374 23.0712L96.9523 22.692C98.1803 21.4857 99.1122 20.1458 99.7478 18.6723C100.383 17.1915 100.701 15.7287 100.701 14.2841C100.701 13.3234 100.557 12.3518 100.268 11.3695C99.9862 10.3799 99.5672 9.41923 99.011 8.48742C98.4547 7.5484 97.7685 6.67438 96.9523 5.86537L97.5374 5.52949C98.7942 6.72133 99.7839 8.08653 100.506 9.62509C101.229 11.1565 101.59 12.7094 101.59 14.2841C101.59 15.317 101.427 16.3572 101.102 17.4045C100.777 18.4519 100.311 19.4596 99.7045 20.4275C99.0977 21.3882 98.3753 22.2694 97.5374 23.0712Z" fill="#FF6A13"/>
<path d="M95.8578 20.6875V14.6634C95.8578 13.4642 95.5688 12.5469 94.991 11.9112C94.4131 11.2684 93.6114 10.947 92.5857 10.947C91.8561 10.947 91.2313 11.1456 90.7112 11.5428C90.1983 11.9401 89.8047 12.4891 89.5302 13.1897C89.263 13.8833 89.1293 14.685 89.1293 15.5952H88.6851C88.6851 14.5478 88.8332 13.6268 89.1293 12.8322C89.4255 12.0305 89.8697 11.402 90.462 10.947C91.0616 10.4919 91.82 10.2644 92.7373 10.2644C93.503 10.2644 94.1748 10.4377 94.7526 10.7844C95.3377 11.1311 95.7928 11.6332 96.1178 12.2905C96.4501 12.9406 96.6162 13.7315 96.6162 14.6634V20.6875H95.8578ZM88.3275 20.6875V10.481H88.9885L89.1293 13.1789V20.6875H88.3275Z" fill="#FF6A13"/>
<path d="M83.0165 20.9042C82.1207 20.9042 81.3406 20.6767 80.6761 20.2217C80.0116 19.7594 79.4952 19.131 79.1268 18.3363C78.7584 17.5418 78.5742 16.6425 78.5742 15.6385C78.5742 14.5261 78.7547 13.569 79.1159 12.7672C79.4843 11.9654 80.0008 11.3478 80.6653 10.9144C81.3299 10.481 82.1135 10.2644 83.0165 10.2644C83.7461 10.2644 84.36 10.4124 84.8584 10.7086C85.3641 11.0048 85.7686 11.4093 86.0719 11.9221C86.3825 12.435 86.6065 13.0128 86.7437 13.6557C86.8809 14.2985 86.9495 14.9667 86.9495 15.6602H79.2568V14.9667H86.5487L86.0503 15.2918C86.0719 14.7862 86.0394 14.2804 85.9527 13.7748C85.8733 13.262 85.7216 12.7925 85.4976 12.3663C85.2737 11.9401 84.9596 11.5971 84.5551 11.337C84.1506 11.077 83.6377 10.947 83.0165 10.947C82.2074 10.947 81.5321 11.1565 80.9904 11.5754C80.4558 11.9943 80.0549 12.5361 79.7877 13.2006C79.5276 13.8579 79.3976 14.5478 79.3976 15.2701V15.6385C79.3976 16.4908 79.5276 17.2637 79.7877 17.9571C80.0549 18.6434 80.4558 19.1888 80.9904 19.5933C81.5321 19.9978 82.2074 20.2 83.0165 20.2C83.8616 20.2 84.5478 19.9905 85.0751 19.5716C85.6097 19.1525 85.9238 18.535 86.0177 17.7188H86.9278C86.8195 18.4122 86.5848 18.9973 86.2236 19.474C85.8625 19.9435 85.4074 20.3011 84.8584 20.5467C84.3095 20.7851 83.6955 20.9042 83.0165 20.9042Z" fill="#FF6A13"/>
<path d="M73.3327 25.91C72.4226 25.91 71.6136 25.7728 70.9057 25.4983C70.1978 25.231 69.6417 24.8662 69.2372 24.4039C68.8399 23.9416 68.6412 23.4179 68.6412 22.8328C68.6412 21.9733 68.959 21.3232 69.5947 20.8825C70.2304 20.4492 71.0611 20.2325 72.0868 20.2325V20.7092C71.2344 20.7092 70.5734 20.9007 70.1039 21.2835C69.6344 21.6663 69.3996 22.1827 69.3996 22.8328C69.3996 23.4685 69.7211 24.0246 70.364 24.5015C71.0068 24.9854 71.9964 25.2274 73.3327 25.2274C74.3367 25.2274 75.2252 25.0866 75.9982 24.8048C76.7711 24.5304 77.3778 24.162 77.8184 23.6996C78.259 23.2373 78.4793 22.7389 78.4793 22.2044C78.4793 21.8143 78.324 21.4676 78.0134 21.1643C77.7101 20.8609 77.2478 20.7092 76.6266 20.7092H72.0868C71.3933 20.7092 70.8299 20.6117 70.3964 20.4167C69.963 20.2217 69.6417 19.9689 69.4322 19.6583C69.2299 19.3477 69.1288 19.019 69.1288 18.6722C69.1288 18.2461 69.2479 17.8921 69.4863 17.6104C69.7319 17.3215 70.0389 17.1084 70.4073 16.9711C70.7757 16.8267 71.1477 16.7544 71.5233 16.7544V17.1554C71.2994 17.1554 71.0611 17.2132 70.8083 17.3287C70.5627 17.4371 70.3532 17.6032 70.1797 17.8271C70.0065 18.0511 69.9197 18.3363 69.9197 18.683C69.9197 19.0586 70.0678 19.3801 70.364 19.6474C70.6673 19.9146 71.2416 20.0483 72.0868 20.0483H76.6266C77.4645 20.0483 78.1181 20.2541 78.5876 20.6659C79.0644 21.0776 79.3027 21.5941 79.3027 22.2153C79.3027 22.8076 79.068 23.3854 78.5985 23.9488C78.129 24.5195 77.45 24.989 76.5616 25.3574C75.673 25.7258 74.5968 25.91 73.3327 25.91ZM73.8094 17.8705C73.051 17.8705 72.3792 17.7079 71.7942 17.3829C71.2091 17.0578 70.7505 16.61 70.4182 16.0393C70.0858 15.4615 69.9197 14.8006 69.9197 14.0565C69.9197 13.3125 70.0858 12.6589 70.4182 12.0955C70.7505 11.5248 71.2091 11.077 71.7942 10.752C72.3792 10.4269 73.051 10.2643 73.8094 10.2643C74.5462 10.2643 75.2 10.4269 75.7706 10.752C76.3484 11.077 76.8035 11.5248 77.1358 12.0955C77.468 12.6589 77.6342 13.3125 77.6342 14.0565C77.6342 14.8006 77.468 15.4615 77.1358 16.0393C76.8035 16.61 76.3484 17.0578 75.7706 17.3829C75.2 17.7079 74.5462 17.8705 73.8094 17.8705ZM73.7878 17.2421C74.7123 17.2421 75.4491 16.9422 75.9982 16.3427C76.5544 15.736 76.8324 14.974 76.8324 14.0565C76.8324 13.1464 76.5544 12.4024 75.9982 11.8245C75.4491 11.2395 74.7196 10.947 73.8094 10.947C72.8704 10.947 72.1229 11.2395 71.5667 11.8245C71.0177 12.4024 70.7431 13.1464 70.7431 14.0565C70.7431 14.974 71.0177 15.736 71.5667 16.3427C72.1229 16.9422 72.8632 17.2421 73.7878 17.2421ZM76.8757 11.8679L76.4532 11.9004C76.4532 11.3154 76.5435 10.8025 76.7241 10.3619C76.9119 9.91402 77.2008 9.56369 77.5908 9.31087C77.9809 9.05806 78.4865 8.93166 79.1077 8.93166L78.9777 9.80928C78.3059 9.80928 77.7859 9.97542 77.4175 10.3077C77.0563 10.64 76.8757 11.16 76.8757 11.8679Z" fill="#FF6A13"/>
<path d="M68.7594 5.52949L69.3337 5.86537C68.5174 6.67438 67.8312 7.5484 67.2749 8.48742C66.726 9.41923 66.3107 10.3799 66.029 11.3695C65.7473 12.3518 65.6064 13.3234 65.6064 14.2841C65.6064 15.7287 65.9206 17.1915 66.5491 18.6723C67.1847 20.1458 68.1129 21.4857 69.3337 22.692L68.7594 23.0712C67.4953 21.8649 66.5057 20.4889 65.7906 18.9432C65.0755 17.3901 64.7179 15.8371 64.7179 14.2841C64.7179 12.7094 65.0755 11.1565 65.7906 9.62509C66.5057 8.08653 67.4953 6.72133 68.7594 5.52949Z" fill="#FF6A13"/>
</g>
<defs>
<clipPath id="clip0_1_588">
<rect width="101.636" height="26" fill="white" transform="translate(-0.00317383)"/>
</clipPath>
</defs>
</svg>
