<svg width="651" height="62" viewBox="0 0 651 62" fill="none" xmlns="http://www.w3.org/2000/svg">
<path d="M109.848 0C120.225 0 127.607 6.0293 127.607 14.8066C127.607 22.3334 121.569 28.5546 113.237 29.6456C113.197 29.6509 113.163 29.6802 113.154 29.7195C113.14 29.7735 113.175 29.8281 113.229 29.8399C119.938 31.3019 124.162 36.1272 124.162 42.8613C124.162 53.2793 114.975 61.0723 102.055 61.0723C90.6064 61.0722 83.1483 54.8875 82.0454 47.009C81.838 45.5277 83.0973 44.3379 84.593 44.3379C86.1127 44.3379 87.3128 45.5748 87.7041 47.0432C89.1201 52.3579 94.4629 56.1503 102.506 56.1504C111.816 56.1504 118.42 50.6543 118.42 43.3125C118.42 36.2988 113.252 32.1152 104.926 32.1152H100.116C98.5102 32.1152 97.3062 30.6443 97.6237 29.0697C97.863 27.8829 98.9058 27.0293 100.116 27.0293H106.32C115.549 27.0293 121.947 22.2305 121.947 15.3809C121.947 8.98242 116.861 4.83984 109.355 4.83984C103.029 4.8399 97.7657 8.28886 95.6238 13.4437C95.1367 14.616 94.0617 15.5039 92.7921 15.5039C91.0819 15.5039 89.7794 13.9394 90.378 12.3373C93.1886 4.81548 100.625 5.73498e-05 109.848 0ZM232.709 0.0410156C247.228 0.0410156 256.867 10.1309 256.867 25.5117C256.867 45.2402 243.947 61.0312 226.31 61.0312C211.832 61.0312 202.193 50.9414 202.193 35.5605C202.193 15.8321 215.113 0.0410686 232.709 0.0410156ZM323.557 0.0410156C338.077 0.0410156 347.716 10.1309 347.716 25.5117C347.716 45.2402 334.796 61.0312 317.159 61.0312C302.681 61.0311 293.042 50.9413 293.042 35.5605C293.042 15.8322 305.962 0.0412238 323.557 0.0410156ZM379.195 0.0410156C392.115 0.0410156 401.098 7.66992 401.631 19.3184C401.674 19.7475 401.322 20.0977 400.891 20.0977H396.71C396.324 20.0977 395.971 19.7863 395.971 19.4004C395.355 10.7871 388.629 5.20898 379.113 5.20898C365.004 5.20899 354.791 18.252 354.791 35.6426C354.791 48.0293 361.887 55.8633 373.043 55.8633C381.099 55.8633 387.725 51.8875 391.023 45.0615C391.533 44.0081 392.563 43.2715 393.733 43.2715C395.619 43.2715 396.965 45.1047 396.16 46.8107C391.996 55.6423 383.366 61.0312 372.961 61.0312C358.441 61.0312 349.049 51.1465 349.049 35.8887C349.049 15.5449 361.846 0.0410229 379.195 0.0410156ZM470.946 0.0410156C483.866 0.0410156 492.849 7.66993 493.382 19.3184C493.425 19.7475 493.073 20.0977 492.642 20.0977H488.461C488.075 20.0977 487.722 19.7863 487.722 19.4004C487.106 10.7871 480.38 5.20898 470.864 5.20898C456.755 5.20916 446.542 18.2521 446.542 35.6426C446.542 48.0292 453.638 55.8631 464.794 55.8633C472.85 55.8633 479.476 51.8874 482.774 45.0615C483.284 44.0081 484.314 43.2715 485.484 43.2715C487.37 43.2715 488.716 45.1047 487.911 46.8107C483.747 55.6423 475.117 61.0312 464.712 61.0312C450.192 61.0311 440.8 51.1464 440.8 35.8887C440.8 15.545 453.597 0.0411865 470.946 0.0410156ZM522.564 0.0410156C535.484 0.0410589 544.467 7.66995 545 19.3184C545.043 19.7475 544.691 20.0977 544.26 20.0977H540.079C539.694 20.0977 539.34 19.7863 539.34 19.4004C538.724 10.7871 531.998 5.20903 522.482 5.20898C508.373 5.20898 498.16 18.252 498.16 35.6426C498.16 48.0293 505.256 55.8633 516.412 55.8633C524.468 55.8632 531.094 51.8875 534.393 45.0615C534.902 44.0081 535.932 43.2715 537.102 43.2715C538.988 43.2715 540.334 45.1047 539.529 46.8107C535.365 55.6423 526.735 61.0312 516.33 61.0312C501.81 61.0312 492.418 51.1465 492.418 35.8887C492.418 15.5449 505.215 0.0410156 522.564 0.0410156ZM180.445 3.30685C180.119 4.8537 181.278 6.31085 182.848 6.49118C194.687 7.85051 201.722 15.0668 201.722 26.168C201.722 41.3166 189.779 52.7514 172.755 54.3316C170.895 54.5043 169.296 55.807 168.916 57.6361L168.703 58.6593C168.441 59.9214 167.329 60.8262 166.04 60.8262H165.954C164.266 60.8262 163.008 59.2699 163.362 57.6196C163.709 56.001 162.497 54.473 160.854 54.2769C149.103 52.8751 142.126 45.6726 142.126 34.6172C142.126 19.4266 154.135 7.97041 171.235 6.44063C173.013 6.28153 174.543 5.03832 174.911 3.29122L175.1 2.39608C175.364 1.14295 176.47 0.246094 177.751 0.246094H177.963C179.575 0.246094 180.778 1.72961 180.445 3.30685ZM44.4133 4.02736C44.1589 5.19594 43.1245 6.0293 41.9286 6.0293H21.8304C18.0515 6.0293 14.788 8.6735 14.0043 12.3702L13.3356 15.5245C12.2809 20.4999 16.0757 25.1836 21.1617 25.1836H24.2899C35.241 25.1836 42.5829 31.2539 42.5829 40.2773C42.5829 50.7773 33.6004 60.1289 20.1884 60.1289H8.00302C2.91467 60.1289 -0.880706 55.4411 0.178148 50.4642L9.36592 7.27861C10.1518 3.58459 13.4141 0.943359 17.1908 0.943359H41.9286C43.551 0.943359 44.7585 2.4421 44.4133 4.02736ZM89.4979 4.00818C89.251 5.18589 88.2124 6.0293 87.009 6.0293H65.4796C61.7061 6.0293 58.4457 8.66612 57.6565 12.3562L56.5257 17.6433C55.4608 22.6225 59.257 27.3164 64.3488 27.3164H79.9125C81.5042 27.3164 82.6912 28.7831 82.3595 30.3399C82.1133 31.4947 81.0933 32.3203 79.9125 32.3203H59.8774C56.0963 32.3203 52.8314 34.9677 52.0501 38.6672L50.6303 45.3899C49.5799 50.3637 53.3742 55.043 58.4577 55.043H75.4837C77.098 55.043 78.3038 56.5278 77.9725 58.1078C77.7256 59.2855 76.687 60.1289 75.4837 60.1289H51.6231C46.5348 60.1289 42.7394 55.4411 43.7983 50.4642L52.986 7.27861C53.7719 3.58459 57.0342 0.943359 60.8109 0.943359H87.009C88.6234 0.943359 89.8292 2.42816 89.4979 4.00818ZM303.208 4.00818C302.961 5.18589 301.922 6.0293 300.719 6.0293H289.495C285.716 6.0293 282.453 8.67236 281.669 12.3681L272.002 57.9046C271.727 59.2014 270.582 60.1289 269.256 60.1289C267.47 60.1289 266.139 58.4834 266.511 56.7367L275.254 15.6962C276.314 10.7187 272.519 6.0293 267.43 6.0293H260.651C259.044 6.0293 257.84 4.5584 258.158 2.98375C258.397 1.79692 259.44 0.943359 260.651 0.943359H300.719C302.333 0.943359 303.539 2.42816 303.208 4.00818ZM444.526 4.00818C444.279 5.18589 443.241 6.0293 442.037 6.0293H420.508C416.734 6.0293 413.474 8.66612 412.685 12.3562L411.554 17.6433C410.489 22.6225 414.285 27.3164 419.377 27.3164H434.941C436.532 27.3164 437.72 28.7831 437.388 30.3399C437.142 31.4947 436.122 32.3203 434.941 32.3203H414.906C411.125 32.3203 407.86 34.9677 407.078 38.6672L405.659 45.3899C404.608 50.3637 408.403 55.043 413.486 55.043H430.512C432.126 55.043 433.332 56.5278 433.001 58.1078C432.754 59.2855 431.715 60.1289 430.512 60.1289H406.651C401.563 60.1289 397.768 55.4411 398.827 50.4642L408.014 7.27861C408.8 3.58459 412.063 0.943359 415.839 0.943359H442.037C443.652 0.943359 444.857 2.42816 444.526 4.00818ZM547.885 50.0951C547.846 50.2774 547.985 50.4492 548.172 50.4492C548.254 50.4492 548.333 50.4142 548.389 50.3528L592.087 2.05286C592.726 1.34641 593.634 0.943359 594.587 0.943359C596.731 0.943359 598.331 2.91884 597.884 5.01618L586.625 57.9373C586.353 59.2152 585.225 60.1289 583.918 60.1289C582.158 60.1289 580.845 58.5065 581.212 56.7845L590.964 11.0183C591.003 10.8359 590.864 10.6641 590.678 10.6641C590.595 10.6641 590.516 10.6991 590.46 10.7604L546.763 59.0203C546.123 59.7262 545.215 60.1289 544.263 60.1289C542.119 60.1289 540.519 58.1531 540.965 56.0555L552.224 3.13523C552.496 1.85717 553.625 0.943359 554.931 0.943359C556.692 0.943359 558.005 2.56557 557.638 4.28762L547.885 50.0951ZM599.994 50.0951C599.955 50.2774 600.094 50.4492 600.281 50.4492C600.364 50.4492 600.443 50.4142 600.498 50.3528L644.196 2.05286C644.835 1.34641 645.744 0.943359 646.696 0.943359C648.841 0.943359 650.44 2.91884 649.994 5.01618L638.735 57.9373C638.463 59.2152 637.334 60.1289 636.028 60.1289C634.267 60.1289 632.954 58.5065 633.321 56.7845L643.074 11.0183C643.113 10.8359 642.974 10.6641 642.787 10.6641C642.704 10.6641 642.625 10.6991 642.57 10.7604L598.872 59.0203C598.233 59.7262 597.325 60.1289 596.372 60.1289C594.228 60.1289 592.628 58.1531 593.075 56.0555L604.333 3.13523C604.605 1.85717 605.734 0.943359 607.041 0.943359C608.801 0.943359 610.114 2.56557 609.748 4.28762L599.994 50.0951ZM232.668 5.20898C218.271 5.20904 207.935 18.5801 207.935 35.3145C207.935 47.9062 215.195 55.8632 226.392 55.8633C240.789 55.8633 251.125 42.4922 251.125 25.7578C251.125 13.166 243.824 5.20898 232.668 5.20898ZM323.516 5.20898C309.12 5.2092 298.784 18.5802 298.784 35.3145C298.784 47.9061 306.044 55.8631 317.241 55.8633C331.638 55.8633 341.974 42.4922 341.974 25.7578C341.974 13.166 334.673 5.20898 323.516 5.20898ZM6.96169 45.4496C5.89516 50.4295 9.69151 55.125 14.7843 55.125H19.6552C29.4989 55.125 36.7587 49.0547 36.7587 41.0977C36.7587 34.043 31.4676 30.2285 23.1825 30.2285H16.6896C12.917 30.2285 9.6571 32.8642 8.86703 36.5532L6.96169 45.4496ZM171.104 21.2379C172.181 16.1801 168.14 11.3715 163.289 13.1627C153.935 16.6163 147.827 24.5921 147.827 34.4941C147.827 41.6739 151.75 46.6194 158.571 48.5579C162.259 49.6058 165.671 46.756 166.47 43.0066L171.104 21.2379ZM172.743 39.5474C171.666 44.6051 175.707 49.4137 180.559 47.6226C189.912 44.1691 196.02 36.1933 196.02 26.291C196.02 19.1111 192.098 14.1656 185.276 12.2272C181.589 11.1794 178.176 14.0291 177.378 17.7785L172.743 39.5474Z" fill="#FF6A13"/>
</svg>
