<svg width="500" height="55" viewBox="0 0 500 55" fill="none" xmlns="http://www.w3.org/2000/svg">
<path d="M378.981 39.1092C378.674 40.5494 379.773 41.9062 381.245 41.9062C382.717 41.9062 383.816 43.2626 383.509 44.7026L381.712 53.1516C381.522 54.0472 380.731 54.6875 379.815 54.6875C378.581 54.6875 377.66 53.5493 377.919 52.3422L378.37 50.2344C378.86 47.9423 377.113 45.7812 374.769 45.7812H347.651C345.765 45.7812 344.135 47.0993 343.74 48.9441L342.842 53.1399C342.648 54.0425 341.851 54.6875 340.928 54.6875C339.683 54.6875 338.754 53.5407 339.013 52.323L340.704 44.3745C341.01 42.9353 342.281 41.9062 343.753 41.9062C344.211 41.9062 344.668 41.8134 345.064 41.5839C348.296 39.7123 350.326 35.585 351.885 29.9062L359.05 3.63503C359.525 1.89479 361.106 0.6875 362.909 0.6875H382.225C384.769 0.6875 386.667 3.03218 386.137 5.52096L378.981 39.1092ZM327.103 0C338.166 7.243e-05 345.509 7.68756 345.509 19.4062C345.509 34.4374 335.666 46.4687 322.228 46.4688C311.197 46.4688 303.853 38.7812 303.853 27.0625C303.853 12.0312 313.697 0 327.103 0ZM449.874 44.0872C449.664 45.075 448.791 45.7812 447.781 45.7812C446.42 45.7812 445.405 44.5273 445.689 43.1963L452.89 9.39595C453.42 6.90717 451.522 4.5625 448.978 4.5625H438.657C436.856 4.5625 435.277 5.76673 434.8 7.50398L428.67 29.8438C426.013 39.5624 422.576 46.0623 414.732 46.0625C414.606 46.0625 414.483 46.0589 414.365 46.0523C413.428 46.0001 412.908 45.0677 413.102 44.15L413.235 43.5165C413.412 42.683 414.349 42.125 415.201 42.125C420.138 42.1248 422.638 36.7811 424.576 29.625L431.648 3.63714C432.122 1.89585 433.703 0.6875 435.508 0.6875H454.167C456.711 0.6875 458.608 3.0314 458.079 5.51988L449.874 44.0872ZM10.2169 15.9152C9.68578 18.4044 11.5837 20.75 14.1289 20.75H32.23C34.1174 20.75 35.748 19.4307 36.1419 17.5848L39.3889 2.36891C39.5982 1.38836 40.4644 0.6875 41.467 0.6875C42.8185 0.6875 43.8266 1.93261 43.5453 3.25453L34.8556 44.0989C34.6469 45.0799 33.7807 45.7812 32.7778 45.7812C31.4266 45.7812 30.4187 44.5365 30.6998 43.2149L33.6262 29.4572C34.1554 26.9688 32.2578 24.625 29.7137 24.625H11.6114C9.72297 24.625 8.09181 25.9457 7.69892 27.7928L4.23314 44.0868C4.02299 45.0748 3.15048 45.7812 2.14038 45.7812C0.779519 45.7812 -0.235542 44.5275 0.0476451 43.1964L8.73113 2.38123C8.94124 1.39363 9.81341 0.6875 10.8231 0.6875C12.184 0.6875 13.1988 1.94172 12.9148 3.27266L10.2169 15.9152ZM74.2522 43.4644C74.4476 44.6797 73.509 45.7812 72.2781 45.7812C71.291 45.7812 70.4516 45.0609 70.3018 44.0852L68.958 35.3306C68.6584 33.3787 66.9791 31.9375 65.0043 31.9375H51.7455C50.317 31.9375 48.997 32.6993 48.2822 33.9361L42.0282 44.7585C41.6625 45.3914 40.9869 45.7812 40.2559 45.7812C38.675 45.7812 37.6908 44.0654 38.4889 42.7008L62.1862 2.18521C62.7287 1.25762 63.7227 0.6875 64.7973 0.6875C66.2825 0.6875 67.548 1.76581 67.7838 3.23224L74.2522 43.4644ZM82.9054 37.0728C82.3752 39.5616 84.273 41.9062 86.8176 41.9062H96.2943C98.1822 41.9062 99.8131 40.5862 100.207 38.7397L107.952 2.38119C108.163 1.39355 109.035 0.6875 110.045 0.6875C111.406 0.6875 112.421 1.9416 112.137 3.27278L104.937 37.0728C104.406 39.5616 106.304 41.9062 108.849 41.9062H118.326C120.213 41.9062 121.844 40.5862 122.238 38.7397L129.986 2.36938C130.195 1.38863 131.061 0.6875 132.064 0.6875C133.415 0.6875 134.423 1.93244 134.142 3.25418L125.768 42.6136C125.375 44.4606 123.744 45.7812 121.856 45.7812H81.6599C79.1158 45.7812 77.2181 43.4374 77.7475 40.9489L85.9553 2.36948C86.164 1.38873 87.0301 0.6875 88.0328 0.6875C89.384 0.6875 90.3917 1.93251 90.1101 3.25403L82.9054 37.0728ZM136.622 38.1364C136.592 38.2754 136.698 38.4062 136.84 38.4062C136.903 38.4062 136.963 38.3795 137.006 38.3328L170.299 1.53283C170.786 0.994589 171.478 0.6875 172.204 0.6875C173.838 0.6875 175.056 2.19263 174.716 3.7906L166.138 44.1114C165.931 45.0851 165.071 45.7812 164.076 45.7812C162.734 45.7812 161.734 44.5452 162.013 43.2332L169.444 8.36363C169.474 8.22467 169.368 8.09375 169.226 8.09375C169.163 8.09375 169.102 8.12042 169.06 8.16718L135.766 44.9366C135.279 45.4744 134.588 45.7812 133.862 45.7812C132.228 45.7812 131.009 44.2759 131.349 42.6777L139.928 2.35749C140.135 1.38373 140.995 0.6875 141.99 0.6875C143.332 0.6875 144.332 1.92347 144.053 3.23551L136.622 38.1364ZM216.978 43.467C217.172 44.6812 216.234 45.7812 215.005 45.7812C214.016 45.7812 213.177 45.0589 213.029 44.0818L211.707 35.3393C211.411 33.3834 209.73 31.9375 207.752 31.9375H194.469C193.041 31.9375 191.721 32.6993 191.006 33.9361L184.752 44.7589C184.386 45.3916 183.711 45.7812 182.98 45.7812C181.399 45.7812 180.416 44.0653 181.214 42.7012L204.941 2.18361C205.484 1.25693 206.477 0.6875 207.551 0.6875C209.037 0.6875 210.302 1.76673 210.537 3.23383L216.978 43.467ZM223.832 44.099C223.624 45.0799 222.757 45.7812 221.754 45.7812C220.403 45.7812 219.395 44.5364 219.677 43.2149L228.366 2.36977C228.575 1.38885 229.441 0.6875 230.444 0.6875C231.795 0.6875 232.803 1.9323 232.522 3.25389L223.832 44.099ZM274.274 40.3334C274.283 40.3759 274.321 40.4062 274.364 40.4062C274.396 40.4062 274.425 40.3901 274.442 40.3635L298.602 2.07425C299.147 1.21102 300.096 0.6875 301.117 0.6875C303.008 0.6875 304.419 2.42994 304.025 4.27986L295.531 44.2074C295.336 45.1251 294.525 45.7812 293.587 45.7812C292.323 45.7812 291.38 44.6174 291.643 43.3813L299.013 8.65821C299.027 8.59282 298.977 8.53125 298.91 8.53125C298.874 8.53125 298.841 8.54962 298.821 8.57994L276.102 44.286C275.596 45.081 274.719 45.5625 273.777 45.5625C272.473 45.5625 271.348 44.6491 271.08 43.3733L263.778 8.62305C263.767 8.56955 263.719 8.53125 263.665 8.53125C263.61 8.53125 263.563 8.56948 263.552 8.62292L256.029 44.2062C255.835 45.1243 255.025 45.7812 254.086 45.7812C252.823 45.7812 251.881 44.6177 252.144 43.3823L260.737 2.9922C261.023 1.64835 262.21 0.6875 263.583 0.6875C264.96 0.6875 266.149 1.65218 266.432 2.99951L274.274 40.3334ZM421.741 3.0226C421.552 3.9199 420.761 4.5625 419.844 4.5625H401.746C399.86 4.5625 398.229 5.88091 397.835 7.72593L396.077 15.9447C395.545 18.4343 397.443 20.7812 399.989 20.7812H414.437C415.65 20.7812 416.554 21.8987 416.302 23.0848C416.114 23.9647 415.337 24.5938 414.437 24.5938H397.474C395.583 24.5938 393.951 25.9174 393.56 27.7672L391.593 37.0797C391.068 39.5666 392.965 41.9062 395.507 41.9062H411.063C412.293 41.9062 413.212 43.0375 412.959 44.2414C412.771 45.1387 411.98 45.7812 411.063 45.7812H390.296C387.752 45.7812 385.854 43.4374 386.383 40.9489L394.275 3.85512C394.668 2.00811 396.299 0.6875 398.187 0.6875H419.844C421.074 0.6875 421.993 1.81878 421.741 3.0226ZM461.072 38.1364C461.042 38.2754 461.148 38.4062 461.29 38.4062C461.353 38.4062 461.413 38.3795 461.456 38.3328L494.75 1.53283C495.236 0.994589 495.928 0.6875 496.654 0.6875C498.288 0.6875 499.507 2.19263 499.167 3.7906L490.588 44.1114C490.381 45.0851 489.521 45.7812 488.526 45.7812C487.184 45.7812 486.184 44.5452 486.464 43.2332L493.894 8.36363C493.924 8.22467 493.818 8.09375 493.676 8.09375C493.613 8.09375 493.553 8.12042 493.51 8.16718L460.217 44.9366C459.73 45.4744 459.038 45.7812 458.312 45.7812C456.678 45.7812 455.46 44.2759 455.8 42.6777L464.378 2.35749C464.585 1.38373 465.445 0.6875 466.44 0.6875C467.782 0.6875 468.782 1.92347 468.503 3.23551L461.072 38.1364ZM327.072 3.9375C316.103 3.9375 308.228 14.125 308.228 26.875C308.228 36.4688 313.759 42.5312 322.291 42.5312C333.259 42.5312 341.134 32.3437 341.134 19.5938C341.134 10.0001 335.572 3.93757 327.072 3.9375ZM355.948 30.0625C354.55 35.2191 353.029 38.9862 350.156 41.5479C350.122 41.5777 350.099 41.6175 350.091 41.6615C350.065 41.7881 350.162 41.9062 350.291 41.9062H370.803C372.691 41.9062 374.322 40.5852 374.715 38.7379L380.952 9.39413C381.481 6.90586 379.583 4.5625 377.04 4.5625H365.998C364.197 4.5625 362.617 5.76655 362.141 7.50363L355.948 30.0625ZM251.284 28.6006C251.104 29.4353 250.366 30.0312 249.512 30.0312H232.908C231.753 30.0312 230.892 28.9658 231.136 27.8369C231.316 27.0022 232.054 26.4062 232.908 26.4062H249.512C250.667 26.4062 251.527 27.4717 251.284 28.6006ZM54.8987 22.293C53.3711 24.9597 55.2964 28.2812 58.3695 28.2812H63.2231C65.6816 28.2812 67.5582 26.0843 67.1739 23.656L64.3863 6.0423C64.3796 5.99994 64.3431 5.96875 64.3002 5.96875C64.269 5.96875 64.2401 5.98548 64.2246 6.0126L54.8987 22.293ZM197.622 22.293C196.095 24.9597 198.02 28.2812 201.093 28.2812H205.947C208.405 28.2812 210.282 26.0843 209.898 23.656L207.11 6.0423C207.103 5.99994 207.067 5.96875 207.024 5.96875C206.993 5.96875 206.964 5.98548 206.948 6.0126L197.622 22.293Z" fill="white"/>
</svg>
