<svg width="1196" height="144" viewBox="0 0 1196 144" fill="none" xmlns="http://www.w3.org/2000/svg">
<path d="M1103.33 104.182C1102.58 107.737 1105.29 111.08 1108.93 111.08C1112.56 111.08 1115.27 114.43 1114.52 117.986L1109.92 139.631C1109.42 141.999 1107.33 143.693 1104.9 143.693C1101.65 143.693 1099.21 140.695 1099.89 137.506L1101.03 132.076C1102.29 126.09 1097.73 120.459 1091.61 120.459H1041.77C1034.84 120.459 1028.85 125.3 1027.4 132.076L1025.77 139.647C1025.27 142.008 1023.18 143.693 1020.77 143.693C1017.51 143.693 1015.08 140.685 1015.76 137.497L1020.33 116.265C1020.98 113.24 1023.65 111.08 1026.74 111.08C1027.97 111.08 1029.19 110.76 1030.15 109.994C1036.1 105.245 1041.69 94.7257 1045.27 82.2696C1046.27 79.0861 1052.17 58.2545 1056.04 44.4896C1058.02 37.4576 1064.44 32.589 1071.75 32.589H1098.43C1108.74 32.589 1116.44 42.0752 1114.31 52.16L1103.33 104.182ZM477.893 31.1524C499.1 31.1524 512.28 44.9239 512.28 67.1446C512.28 73.9931 506.312 78.8888 499.463 78.8888H450.531C447.656 78.8888 445.111 81.0828 445.111 83.9581C445.111 101.363 454.574 112.094 469.444 112.094C481.2 112.094 490.134 106.649 494.985 97.6782C496.064 95.6826 498.058 94.2667 500.327 94.2667C504.015 94.2667 506.655 97.8387 504.951 101.109C498.414 113.647 485.185 122.064 469.19 122.064C446.294 122.064 433.789 106.433 433.789 84.3809C433.789 54.6406 452.208 31.1527 477.893 31.1524ZM666.398 31.1524C687.605 31.1524 700.786 44.9239 700.786 67.1446C700.786 73.9931 694.818 78.8888 687.969 78.8888H639.036C636.161 78.8888 633.616 81.0828 633.616 83.9581C633.616 101.363 643.079 112.094 657.949 112.094C669.706 112.094 678.639 106.649 683.49 97.6782C684.57 95.6826 686.564 94.2667 688.832 94.2667C692.521 94.2667 695.161 97.8387 693.456 101.109C686.92 113.647 673.691 122.064 657.696 122.064C634.8 122.064 622.295 106.433 622.295 84.3809C622.295 54.6405 640.714 31.1526 666.398 31.1524ZM89.2822 6.11089C89.0296 7.36357 88.2448 8.46165 87.0559 8.93004C83.0944 10.4907 76.8708 11.5397 68.8594 11.9727C67.2541 12.2262 59.6496 12.5645 56.3545 12.5645C34.5259 13.1501 23.7905 24.3326 15.7902 49.0624C15.6695 49.4355 15.946 49.8243 16.3382 49.8243C16.5298 49.8243 16.7099 49.7279 16.8189 49.5702C24.574 38.338 34.9896 33.0108 47.6523 33.0108C67.8454 33.0108 81.4482 48.0504 81.4482 69.6798C81.4482 100.181 63.1139 121.895 36.415 121.895C14.1943 121.895 6.24451e-05 105.588 0 79.9034C0 70.694 1.68945 61.2309 4.13965 52.3595C13.4336 18.9014 27.6285 3.2708 58.2139 2.25692C61.0867 2.2569 68.8596 1.83457 70.4648 1.75008C74.4226 1.5252 78.8353 0.917108 82.7089 0.104392C86.2005 -0.628187 89.9872 2.61362 89.2822 6.11089ZM129.185 31.1524C151.321 31.1524 165.516 46.1916 165.516 69.1729C165.516 98.9977 146.167 121.894 120.482 121.895C98.3461 121.895 84.1514 106.855 84.1514 83.8741C84.1514 54.0491 103.584 31.1525 129.185 31.1524ZM993.302 31.1524C1015.44 31.1526 1029.63 46.1918 1029.63 69.1729C1029.63 98.9978 1010.28 121.895 984.599 121.895C962.462 121.894 948.269 106.855 948.269 83.8741C948.269 54.0491 967.701 31.1524 993.302 31.1524ZM1165.84 31.1524C1184 31.1524 1196 41.1221 1196 55.6544C1196 58.2735 1195.75 60.8927 1195.32 63.1739L1184.05 116.26C1183.53 118.708 1181.37 120.458 1178.86 120.458C1175.5 120.458 1172.99 117.366 1173.68 114.074L1175.01 107.705C1175.03 107.615 1174.96 107.531 1174.87 107.531C1174.82 107.531 1174.78 107.555 1174.75 107.593C1168.66 116.344 1158.12 121.895 1146.32 121.895C1130.86 121.894 1118.86 112.093 1118.86 98.1524C1118.86 81.2546 1132.12 71.5379 1154.85 70.2706L1176.43 69.0973C1180.2 68.8923 1183.37 66.1901 1184.17 62.4981C1184.59 60.6393 1184.76 58.8647 1184.76 57.1749C1184.76 47.2052 1177.58 41.0372 1164.91 41.0372C1153.65 41.0373 1145.76 45.7815 1142.3 53.3456C1141.14 55.8601 1138.85 57.8507 1136.08 57.8507C1132.44 57.8507 1129.65 54.5102 1131.08 51.1596C1136.25 39.0563 1148.93 31.1524 1165.84 31.1524ZM231.342 116.074C230.799 118.631 228.541 120.459 225.927 120.459C222.406 120.459 219.78 117.214 220.514 113.77L231.639 61.5716C233.79 51.4779 226.094 41.9679 215.773 41.9679H213.187C205.931 41.9679 199.565 46.7845 197.594 53.7678C194.546 64.5643 190.466 78.9723 189.348 82.6075C181.49 109.222 173.886 121.219 157.917 121.219C157.611 121.219 157.306 121.21 157.005 121.193C154.41 121.049 152.994 118.515 153.54 115.974L153.889 114.351C154.37 112.11 156.724 110.827 159.016 110.827C167.549 110.827 173.463 100.603 178.786 82.1847C180.137 77.78 185.733 58.0678 189.474 44.6969C191.467 37.5725 197.981 32.589 205.379 32.589H229.051C239.367 32.589 247.063 42.0918 244.918 52.1829L231.342 116.074ZM268.643 47.4591C267.012 55.1157 272.85 62.3292 280.679 62.3292H283.725C300.792 62.3292 310.677 71.7927 310.677 85.5645C310.677 105.42 295.385 120.459 271.221 120.459H261.849C251.533 120.459 243.837 110.956 245.981 100.865L259.558 36.9735C260.102 34.4171 262.359 32.589 264.973 32.589C268.494 32.589 271.12 35.8336 270.386 39.2776L268.643 47.4591ZM327.17 91.4929C325.031 101.582 332.726 111.08 343.039 111.08H346.881C354.543 111.08 361.16 105.719 362.75 98.2232L375.738 36.975C376.28 34.4179 378.538 32.589 381.152 32.589C384.672 32.589 387.298 35.8331 386.564 39.2765L375.439 91.4767C373.288 101.57 380.984 111.08 391.305 111.08H395.209C402.871 111.08 409.488 105.719 411.078 98.2232L424.066 36.9766C424.608 34.4186 426.866 32.589 429.481 32.589C433.002 32.589 435.628 35.832 434.896 39.2757L420.376 107.609C418.784 115.101 412.168 120.459 404.508 120.459H329.699C319.382 120.459 311.686 110.956 313.831 100.865L327.408 36.9762C327.951 34.4182 330.21 32.589 332.825 32.589C336.346 32.589 338.973 35.8317 338.243 39.2763L327.17 91.4929ZM564.921 56.2462C561.879 70.356 567.371 78.5518 580.974 78.5518C588.689 78.5518 595.609 76.8599 600.93 73.8583C603.963 72.1477 605.701 68.9404 606.432 65.536L612.562 36.9681C613.11 34.4136 615.368 32.589 617.981 32.589C621.505 32.589 624.134 35.8355 623.402 39.2829L607.085 116.067C606.541 118.628 604.279 120.459 601.661 120.459C598.14 120.459 595.511 117.22 596.235 113.774L602.676 83.1266C602.769 82.6849 602.432 82.2696 601.981 82.2696C601.836 82.2696 601.695 82.3139 601.575 82.3958C595.755 86.3688 587.55 88.4366 578.27 88.4366C559.259 88.4365 549.628 75.4254 553.768 55.9083L557.75 36.9553C558.285 34.4108 560.53 32.589 563.13 32.589C566.621 32.589 569.228 35.8022 568.508 39.219L564.921 56.2462ZM748.207 104.838C748.243 104.981 748.372 105.082 748.521 105.082C748.628 105.082 748.728 105.03 748.788 104.941L796.141 35.962C797.59 33.8507 799.986 32.589 802.547 32.589C807.489 32.589 811.176 37.1414 810.149 41.9755L794.396 116.105C793.856 118.644 791.615 120.459 789.019 120.459C785.524 120.459 782.917 117.24 783.642 113.821L796.511 53.1891C796.556 52.9796 796.396 52.7823 796.182 52.7823C796.072 52.7823 795.968 52.8362 795.905 52.9267L752.026 115.958C750.837 117.666 748.887 118.685 746.806 118.685C743.93 118.685 741.412 116.755 740.664 113.978L724.264 53.0603C724.22 52.8963 724.071 52.7823 723.902 52.7823C723.724 52.7823 723.571 52.9062 723.534 53.0795L710.079 116.109C709.537 118.646 707.296 120.459 704.702 120.459C701.206 120.459 698.597 117.238 699.324 113.818L715.17 39.2465C715.995 35.3647 719.423 32.589 723.391 32.589C727.239 32.589 730.595 35.2022 731.539 38.9327L748.207 104.838ZM886.615 104.838C886.651 104.982 886.78 105.082 886.928 105.082C887.035 105.082 887.135 105.03 887.195 104.942L934.548 35.962C935.997 33.8507 938.394 32.589 940.955 32.589C945.897 32.589 949.583 37.1414 948.556 41.9755L932.804 116.105C932.265 118.644 930.023 120.459 927.427 120.459C923.932 120.459 921.325 117.24 922.05 113.821L934.919 53.1891C934.963 52.9796 934.803 52.7823 934.589 52.7823C934.479 52.7823 934.376 52.8362 934.313 52.9267L890.433 115.959C889.244 117.667 887.295 118.685 885.214 118.685C882.338 118.685 879.82 116.755 879.073 113.978L862.671 53.0598C862.627 52.8961 862.479 52.7823 862.309 52.7823C862.132 52.7823 861.979 52.906 861.943 53.079L848.486 116.109C847.945 118.646 845.704 120.459 843.109 120.459C839.613 120.459 837.005 117.238 837.732 113.818L853.578 39.2464C854.403 35.3647 857.831 32.589 861.799 32.589C865.647 32.589 869.004 35.2022 869.947 38.9327L886.615 104.838ZM1154.77 79.2266C1139.14 80.0716 1130.1 86.4931 1130.1 96.9698C1130.1 106.264 1137.87 112.263 1149.02 112.263C1163.13 112.263 1175.47 102.969 1178.34 89.7042C1179.66 83.7165 1174.9 78.1231 1168.78 78.4586L1154.77 79.2266ZM129.185 41.0372C109.836 41.0372 95.4727 59.3721 95.4727 83.5362C95.4728 100.772 105.274 112.009 120.482 112.009C139.83 112.009 154.278 93.6748 154.278 69.5108C154.278 52.2748 144.477 41.0372 129.185 41.0372ZM993.302 41.0372C973.954 41.0372 959.59 59.3721 959.59 83.5362C959.59 100.772 969.391 112.009 984.599 112.009C1003.95 112.009 1018.39 93.6749 1018.39 69.5108C1018.39 52.275 1008.59 41.0374 993.302 41.0372ZM44.8643 43.0655C25.0091 43.0655 11.2374 60.3015 11.2373 83.7052C11.2373 100.603 21.5451 111.925 37.1758 111.925C55.4256 111.925 69.7041 94.0129 69.7041 71.961C69.7041 53.9647 60.4104 43.0655 44.8643 43.0655ZM258.869 93.3998C256.92 102.5 263.858 111.08 273.164 111.08C289.386 111.08 299.355 99.7585 299.355 86.9161C299.355 77.2844 293.019 71.6232 281.697 71.6231H276.648C268.997 71.6231 262.387 76.9681 260.785 84.4489L258.869 93.3998ZM1079.73 41.9679C1072.41 41.9679 1065.96 46.8685 1063.96 53.9178C1060.85 64.929 1056.63 79.73 1055.74 82.6075C1052.15 94.7428 1048.05 104.391 1042.31 109.91C1042.2 110.012 1042.13 110.146 1042.1 110.292C1042.04 110.704 1042.35 111.08 1042.77 111.08H1077.42C1085.08 111.08 1091.69 105.724 1093.29 98.2332L1101.09 61.5651C1103.23 51.4732 1095.54 41.9679 1085.22 41.9679H1079.73ZM477.724 40.9532C468.605 40.9533 460.909 45.1063 455.362 51.8276C448.788 59.7927 456.709 69.8487 467.036 69.8487H496.46C498.873 69.8487 500.959 68.1209 500.959 65.7081C500.959 52.1054 493.354 40.9532 477.724 40.9532ZM666.229 40.9532C657.111 40.9533 649.415 45.1062 643.868 51.8276C637.294 59.7927 645.214 69.8487 655.542 69.8487H684.966C687.379 69.8487 689.465 68.1209 689.465 65.7081C689.465 52.1054 681.86 40.9532 666.229 40.9532Z" fill="white"/>
</svg>
